<?xml version="1.0" encoding="UTF-8"?>
<svg width="200" height="200" version="1.1" viewBox="0 0 200 200" xmlns="http://www.w3.org/2000/svg">
 <g fill="#000000">
  <rect x="30" y="30" width="10" height="10"/>
  <rect x="40" y="30" width="10" height="10"/>
  <rect x="50" y="30" width="10" height="10"/>
  <rect x="60" y="30" width="10" height="10"/>
  <rect x="70" y="30" width="10" height="10"/>
  <rect x="80" y="30" width="10" height="10"/>
  <rect x="90" y="30" width="10" height="10"/>
  <rect x="120" y="30" width="10" height="10"/>
  <rect x="130" y="30" width="10" height="10"/>
  <rect x="140" y="30" width="10" height="10"/>
  <rect x="150" y="30" width="10" height="10"/>
  <rect x="160" y="30" width="10" height="10"/>
  
  <rect x="30" y="40" width="10" height="10"/>
  <rect x="90" y="40" width="10" height="10"/>
  <rect x="110" y="40" width="10" height="10"/>
  <rect x="160" y="40" width="10" height="10"/>
  
  <rect x="30" y="50" width="10" height="10"/>
  <rect x="50" y="50" width="10" height="10"/>
  <rect x="60" y="50" width="10" height="10"/>
  <rect x="70" y="50" width="10" height="10"/>
  <rect x="90" y="50" width="10" height="10"/>
  <rect x="110" y="50" width="10" height="10"/>
  <rect x="130" y="50" width="10" height="10"/>
  <rect x="140" y="50" width="10" height="10"/>
  <rect x="150" y="50" width="10" height="10"/>
  <rect x="160" y="50" width="10" height="10"/>
  
  <rect x="30" y="60" width="10" height="10"/>
  <rect x="50" y="60" width="10" height="10"/>
  <rect x="60" y="60" width="10" height="10"/>
  <rect x="70" y="60" width="10" height="10"/>
  <rect x="90" y="60" width="10" height="10"/>
  <rect x="120" y="60" width="10" height="10"/>
  <rect x="160" y="60" width="10" height="10"/>
  
  <rect x="30" y="70" width="10" height="10"/>
  <rect x="50" y="70" width="10" height="10"/>
  <rect x="60" y="70" width="10" height="10"/>
  <rect x="70" y="70" width="10" height="10"/>
  <rect x="90" y="70" width="10" height="10"/>
  <rect x="110" y="70" width="10" height="10"/>
  <rect x="130" y="70" width="10" height="10"/>
  <rect x="140" y="70" width="10" height="10"/>
  <rect x="160" y="70" width="10" height="10"/>
  
  <rect x="30" y="80" width="10" height="10"/>
  <rect x="90" y="80" width="10" height="10"/>
  <rect x="110" y="80" width="10" height="10"/>
  <rect x="120" y="80" width="10" height="10"/>
  <rect x="140" y="80" width="10" height="10"/>
  <rect x="160" y="80" width="10" height="10"/>
  
  <rect x="30" y="90" width="10" height="10"/>
  <rect x="40" y="90" width="10" height="10"/>
  <rect x="50" y="90" width="10" height="10"/>
  <rect x="60" y="90" width="10" height="10"/>
  <rect x="70" y="90" width="10" height="10"/>
  <rect x="80" y="90" width="10" height="10"/>
  <rect x="90" y="90" width="10" height="10"/>
  <rect x="110" y="90" width="10" height="10"/>
  <rect x="130" y="90" width="10" height="10"/>
  <rect x="150" y="90" width="10" height="10"/>
  <rect x="160" y="90" width="10" height="10"/>
  
  <rect x="110" y="100" width="10" height="10"/>
  <rect x="130" y="100" width="10" height="10"/>
  <rect x="150" y="100" width="10" height="10"/>
  
  <rect x="30" y="110" width="10" height="10"/>
  <rect x="40" y="110" width="10" height="10"/>
  <rect x="50" y="110" width="10" height="10"/>
  <rect x="90" y="110" width="10" height="10"/>
  <rect x="110" y="110" width="10" height="10"/>
  <rect x="150" y="110" width="10" height="10"/>
  
  <rect x="60" y="120" width="10" height="10"/>
  <rect x="80" y="120" width="10" height="10"/>
  <rect x="90" y="120" width="10" height="10"/>
  <rect x="110" y="120" width="10" height="10"/>
  <rect x="120" y="120" width="10" height="10"/>
  <rect x="130" y="120" width="10" height="10"/>
  <rect x="140" y="120" width="10" height="10"/>
  <rect x="150" y="120" width="10" height="10"/>
  <rect x="160" y="120" width="10" height="10"/>
  
  <rect x="50" y="130" width="10" height="10"/>
  <rect x="60" y="130" width="10" height="10"/>
  <rect x="80" y="130" width="10" height="10"/>
  <rect x="90" y="130" width="10" height="10"/>
  <rect x="100" y="130" width="10" height="10"/>
  <rect x="130" y="130" width="10" height="10"/>
  <rect x="140" y="130" width="10" height="10"/>
  
  <rect x="40" y="140" width="10" height="10"/>
  <rect x="80" y="140" width="10" height="10"/>
  <rect x="90" y="140" width="10" height="10"/>
  <rect x="120" y="140" width="10" height="10"/>
  <rect x="150" y="140" width="10" height="10"/>
  <rect x="160" y="140" width="10" height="10"/>
  
  <rect x="30" y="150" width="10" height="10"/>
  <rect x="40" y="150" width="10" height="10"/>
  <rect x="50" y="150" width="10" height="10"/>
  <rect x="60" y="150" width="10" height="10"/>
  <rect x="70" y="150" width="10" height="10"/>
  <rect x="80" y="150" width="10" height="10"/>
  <rect x="90" y="150" width="10" height="10"/>
  <rect x="100" y="150" width="10" height="10"/>
  <rect x="120" y="150" width="10" height="10"/>
  <rect x="130" y="150" width="10" height="10"/>
  <rect x="140" y="150" width="10" height="10"/>
  <rect x="150" y="150" width="10" height="10"/>
  <rect x="160" y="150" width="10" height="10"/>
  
  <rect x="100" y="160" width="10" height="10"/>
  <rect x="120" y="160" width="10" height="10"/>
 </g>
</svg> 